<svg width="2000" height="2000" viewBox="0 0 2000 2000" fill="none" xmlns="http://www.w3.org/2000/svg">
<rect width="2000" height="2000" fill="#005276"/>
<path d="M1718.95 841C1718.95 825.887 1712.95 811.391 1702.28 800.695C1691.6 789.999 1677.11 783.977 1662 783.95V783.95C1677.1 783.95 1691.59 777.95 1702.27 767.27C1712.95 756.59 1718.95 742.104 1718.95 727V727C1718.98 742.113 1725 756.599 1735.69 767.276C1746.39 777.953 1760.89 783.95 1776 783.95V783.95C1760.88 783.977 1746.38 789.996 1735.69 800.689C1725 811.382 1718.98 825.878 1718.95 841V841Z" stroke="#38EF7D" stroke-width="8" stroke-linejoin="round"/>
<path d="M1604.7 570C1604.7 554.883 1598.62 540.384 1587.8 529.695C1576.98 519.005 1562.3 513 1547 513V513C1562.3 513 1576.98 506.995 1587.8 496.305C1598.62 485.616 1604.7 471.117 1604.7 456V456C1604.7 471.049 1610.72 485.487 1621.46 496.165C1632.19 506.844 1646.77 512.895 1662 513C1646.7 513 1632.02 519.005 1621.2 529.695C1610.38 540.384 1604.3 554.883 1604.3 570H1604.7Z" stroke="#38EF7D" stroke-width="8" stroke-linejoin="round"/>
<path d="M691.41 1186.36C672.134 1193.73 650.597 1197.41 626.799 1197.41C586.581 1197.41 556.12 1186.72 535.416 1165.33C514.712 1143.71 504.36 1112.1 504.36 1070.51C504.36 1029.4 515.188 997.559 536.844 974.983C558.5 952.407 588.961 941.12 628.227 941.12C649.169 941.12 669.04 944.447 687.84 951.1V993.163C666.184 988.41 648.455 986.034 634.653 986.034C609.903 986.034 591.341 992.569 578.966 1005.64C566.829 1018.71 560.761 1038.67 560.761 1065.52V1073.72C560.761 1100.34 566.71 1120.18 578.609 1133.25C590.508 1146.08 608.713 1152.5 633.225 1152.5C647.027 1152.5 666.422 1149.77 691.41 1144.3V1186.36Z" fill="#9FFCEA"/>
<path d="M807.864 1189.22C797.869 1193.26 787.16 1195.28 775.737 1195.28C743.611 1195.28 727.547 1177.33 727.547 1141.45V929H779.664V1137.17C779.664 1143.83 780.735 1148.58 782.877 1151.43C785.257 1154.04 789.064 1155.35 794.3 1155.35C797.631 1155.35 802.153 1155 807.864 1154.28V1189.22Z" fill="#9FFCEA"/>
<path d="M921.176 1198.13C892.856 1198.13 870.725 1189.69 854.78 1172.82C838.836 1155.71 830.863 1131.94 830.863 1101.53C830.863 1071.35 838.836 1047.82 854.78 1030.95C870.725 1013.84 892.856 1005.28 921.176 1005.28C949.495 1005.28 971.627 1013.84 987.571 1030.95C1003.52 1047.82 1011.49 1071.35 1011.49 1101.53C1011.49 1131.94 1003.52 1155.71 987.571 1172.82C971.627 1189.69 949.495 1198.13 921.176 1198.13ZM921.176 1158.2C946.163 1158.2 958.657 1139.31 958.657 1101.53C958.657 1063.98 946.163 1045.21 921.176 1045.21C896.188 1045.21 883.694 1063.98 883.694 1101.53C883.694 1139.31 896.188 1158.2 921.176 1158.2Z" fill="#9FFCEA"/>
<path d="M1173.46 1192.78L1168.46 1173.53C1147.28 1189.93 1125.15 1198.13 1102.07 1198.13C1085.89 1198.13 1073.27 1193.37 1064.23 1183.87C1055.19 1174.13 1050.66 1160.82 1050.66 1143.95V1010.63H1102.78V1129.33C1102.78 1148.58 1111.11 1158.2 1127.77 1158.2C1140.14 1158.2 1152.28 1154.4 1164.18 1146.8V1010.63H1216.3V1192.78H1173.46Z" fill="#9FFCEA"/>
<path d="M1389.29 1192.78L1385 1176.74C1370.25 1190.05 1352.76 1196.7 1332.53 1196.7C1317.54 1196.7 1304.33 1193.02 1292.9 1185.65C1281.48 1178.05 1272.56 1167.11 1266.13 1152.86C1259.94 1138.6 1256.85 1121.84 1256.85 1102.6C1256.85 1073.13 1263.87 1049.6 1277.91 1032.02C1291.95 1014.19 1310.51 1005.28 1333.6 1005.28C1352.4 1005.28 1368.7 1010.63 1382.5 1021.32V929H1434.62V1192.78H1389.29ZM1349.66 1157.49C1361.08 1157.49 1372.03 1154.16 1382.5 1147.51V1053.4C1372.27 1047.46 1360.49 1044.49 1347.16 1044.49C1334.55 1044.49 1325.15 1049.25 1318.96 1058.75C1312.78 1068.02 1309.68 1082.16 1309.68 1101.17C1309.68 1120.18 1312.89 1134.32 1319.32 1143.59C1325.98 1152.86 1336.1 1157.49 1349.66 1157.49Z" fill="#9FFCEA"/>
<path d="M914.597 1516.88C895.321 1524.25 873.784 1527.93 849.986 1527.93C809.768 1527.93 779.307 1517.24 758.603 1495.85C737.899 1474.22 727.547 1442.62 727.547 1401.03C727.547 1359.92 738.375 1328.08 760.031 1305.5C781.687 1282.92 812.148 1271.64 851.414 1271.64C872.356 1271.64 892.227 1274.96 911.027 1281.62V1323.68C889.371 1318.93 871.642 1316.55 857.839 1316.55C833.09 1316.55 814.528 1323.09 802.153 1336.16C790.016 1349.23 783.948 1369.19 783.948 1396.04V1404.24C783.948 1430.85 789.897 1450.7 801.796 1463.77C813.695 1476.6 831.9 1483.02 856.412 1483.02C870.214 1483.02 889.609 1480.28 914.597 1474.82V1516.88Z" fill="#9FFCEA"/>
<path d="M1031.05 1519.73C1021.06 1523.77 1010.35 1525.79 998.924 1525.79C966.797 1525.79 950.734 1507.85 950.734 1471.97V1259.52H1002.85V1467.69C1002.85 1474.34 1003.92 1479.1 1006.06 1481.95C1008.44 1484.56 1012.25 1485.87 1017.49 1485.87C1020.82 1485.87 1025.34 1485.51 1031.05 1484.8V1519.73Z" fill="#9FFCEA"/>
<path d="M1188.19 1523.3L1183.19 1504.05C1162.01 1520.44 1139.88 1528.64 1116.79 1528.64C1100.61 1528.64 1088 1523.89 1078.95 1514.39C1069.91 1504.64 1065.39 1491.33 1065.39 1474.46V1341.15H1117.51V1459.85C1117.51 1479.1 1125.84 1488.72 1142.49 1488.72C1154.87 1488.72 1167.01 1484.92 1178.9 1477.31V1341.15H1231.02V1523.3H1188.19Z" fill="#9FFCEA"/>
<path d="M1280.86 1523.3V1259.52H1332.97V1355.05C1339.88 1349.11 1347.97 1344.47 1357.25 1341.15C1366.53 1337.58 1375.69 1335.8 1384.73 1335.8C1407.82 1335.8 1426.02 1344.24 1439.35 1361.11C1452.91 1377.98 1459.7 1400.79 1459.7 1429.55C1459.7 1448.32 1456.6 1465.07 1450.42 1479.81C1444.23 1494.54 1435.3 1506.19 1423.64 1514.74C1411.98 1523.06 1398.54 1527.22 1383.31 1527.22C1372.36 1527.22 1362.13 1525.32 1352.61 1521.51C1343.09 1517.71 1335.12 1512.37 1328.69 1505.47L1324.05 1523.3H1280.86ZM1367.96 1375.01C1355.58 1375.01 1343.92 1378.22 1332.97 1384.63V1478.38C1343.44 1484.8 1355.11 1488.01 1367.96 1488.01C1381.28 1488.01 1391.04 1483.49 1397.23 1474.46C1403.65 1465.43 1406.87 1451.17 1406.87 1431.69C1406.87 1411.96 1403.77 1397.59 1397.58 1388.55C1391.4 1379.52 1381.52 1375.01 1367.96 1375.01Z" fill="#9FFCEA"/>
<path d="M1577.94 1473.04C1577.94 1468.28 1576.51 1464.6 1573.65 1461.99C1571.03 1459.37 1565.56 1456.52 1557.23 1453.43L1529.39 1442.38C1514.87 1436.68 1504.4 1429.67 1497.98 1421.35C1491.55 1413.03 1488.34 1402.46 1488.34 1389.62C1488.34 1373.46 1494.76 1360.51 1507.61 1350.77C1520.7 1340.79 1538.07 1335.8 1559.73 1335.8C1579.72 1335.8 1598.16 1339.72 1615.06 1347.56V1382.14C1596.97 1376.67 1580.08 1373.94 1564.37 1373.94C1554.61 1373.94 1547.47 1375.13 1542.95 1377.5C1538.43 1379.88 1536.17 1383.68 1536.17 1388.91C1536.17 1392.95 1537.48 1396.28 1540.1 1398.89C1542.95 1401.27 1548.78 1404.24 1557.59 1407.8L1584.72 1418.85C1599.47 1424.79 1609.94 1431.69 1616.13 1439.53C1622.56 1447.37 1625.77 1457.59 1625.77 1470.18C1625.77 1487.77 1618.99 1502.03 1605.42 1512.96C1592.1 1523.65 1574.48 1529 1552.59 1529C1528.08 1529 1506.42 1524.13 1487.62 1514.39V1479.81C1511.18 1487.18 1532.72 1490.86 1552.23 1490.86C1569.37 1490.86 1577.94 1484.92 1577.94 1473.04Z" fill="#9FFCEA"/>
<path d="M327.516 1420.06C246.734 1368.5 191.304 1278.97 193.039 1178.75" stroke="#2ED27C" stroke-width="8" stroke-linejoin="round"/>
<path d="M326.86 1420.5C369.86 1449.33 488.86 1507 620.86 1507" stroke="#2ED27C" stroke-width="8"/>
<path d="M193.04 1178.75C193.04 1026.19 309.682 901.006 458.812 887.129C458.619 882.792 458.137 878.552 458.137 874.215C458.137 767.821 544.51 681.569 650.935 681.569C702.605 681.569 749.455 702 783.966 735.055C843.348 577.295 995.272 464.637 1173.9 464.637C1404.1 464.637 1590.73 651.212 1590.73 881.25V881.443C1716.14 922.208 1806.76 1039.88 1806.76 1178.75C1806.76 1262.15 1774.13 1337.93 1720.93 1394" stroke="#2ED27C" stroke-width="8" stroke-linejoin="round"/>
<path d="M316.549 840.901C316.497 825.805 310.516 811.345 299.917 800.689C289.318 790.033 274.964 784.05 260 784.05V784.05C274.998 784.05 289.381 778.039 299.986 767.34C310.591 756.641 316.549 742.13 316.549 727C316.536 734.487 317.987 741.903 320.818 748.824C323.649 755.745 327.805 762.035 333.048 767.334C338.292 772.633 344.519 776.837 351.374 779.705C358.23 782.573 365.578 784.05 373 784.05V784.05C358.028 784.05 343.67 790.05 333.083 800.73C322.497 811.41 316.549 825.896 316.549 841V840.901Z" stroke="#38EF7D" stroke-width="8" stroke-linejoin="round"/>
<path d="M793 394C793 378.883 787.1 364.385 776.598 353.695C766.096 343.005 751.852 337 737 337V337C744.354 337 751.636 335.526 758.43 332.661C765.225 329.797 771.398 325.598 776.598 320.305C781.798 315.012 785.923 308.729 788.737 301.813C791.552 294.897 793 287.485 793 280C793 287.485 794.449 294.897 797.263 301.813C800.077 308.729 804.202 315.012 809.402 320.305C814.602 325.598 820.775 329.797 827.57 332.661C834.364 335.526 841.646 337 849 337C834.148 337 819.904 343.005 809.402 353.695C798.9 364.385 793 378.883 793 394V394Z" stroke="#38EF7D" stroke-width="8" stroke-linejoin="round"/>
<path d="M316.549 840.901C316.497 825.805 310.516 811.345 299.917 800.689C289.318 790.033 274.964 784.05 260 784.05V784.05C274.998 784.05 289.381 778.039 299.986 767.34C310.591 756.641 316.549 742.13 316.549 727C316.536 734.487 317.987 741.903 320.818 748.824C323.649 755.745 327.805 762.035 333.048 767.334C338.292 772.633 344.519 776.837 351.374 779.705C358.23 782.573 365.578 784.05 373 784.05V784.05C358.028 784.05 343.67 790.05 333.083 800.73C322.497 811.41 316.549 825.896 316.549 841V840.901Z" stroke="#38EF7D" stroke-width="8" stroke-linejoin="round"/>
<path d="M575.4 522.4C575.4 526.1 575.8 529.1 576.5 531.3C577.3 533.5 578.3 535.9 579.7 538.5C580.2 539.3 580.4 540.1 580.4 540.8C580.4 541.8 579.8 542.8 578.5 543.8L572.2 548C571.3 548.6 570.4 548.9 569.6 548.9C568.6 548.9 567.6 548.4 566.6 547.5C565.2 546 564 544.4 563 542.8C562 541.1 561 539.2 559.9 536.9C552.1 546.1 542.3 550.7 530.5 550.7C522.1 550.7 515.4 548.3 510.5 543.5C505.6 538.7 503.1 532.3 503.1 524.3C503.1 515.8 506.1 508.9 512.2 503.7C518.3 498.5 526.4 495.9 536.7 495.9C540.1 495.9 543.6 496.2 547.3 496.7C551 497.2 554.8 498 558.8 498.9V491.6C558.8 484 557.2 478.7 554.1 475.6C550.9 472.5 545.5 471 537.8 471C534.3 471 530.7 471.4 527 472.3C523.3 473.2 519.7 474.3 516.2 475.7C514.6 476.4 513.4 476.8 512.7 477C512 477.2 511.5 477.3 511.1 477.3C509.7 477.3 509 476.3 509 474.2V469.3C509 467.7 509.2 466.5 509.7 465.8C510.2 465.1 511.1 464.4 512.5 463.7C516 461.9 520.2 460.4 525.1 459.2C530 457.9 535.2 457.3 540.7 457.3C552.6 457.3 561.3 460 566.9 465.4C572.4 470.8 575.2 479 575.2 490V522.4H575.4ZM534.8 537.6C538.1 537.6 541.5 537 545.1 535.8C548.7 534.6 551.9 532.4 554.6 529.4C556.2 527.5 557.4 525.4 558 523C558.6 520.6 559 517.7 559 514.3V510.1C556.1 509.4 553 508.8 549.8 508.4C546.6 508 543.5 507.8 540.4 507.8C533.7 507.8 528.8 509.1 525.5 511.8C522.2 514.5 520.6 518.3 520.6 523.3C520.6 528 521.8 531.5 524.3 533.9C526.7 536.4 530.2 537.6 534.8 537.6ZM615.1 548.4C613.3 548.4 612.1 548.1 611.3 547.4C610.5 546.8 609.8 545.4 609.2 543.5L585.7 466.2C585.1 464.2 584.8 462.9 584.8 462.2C584.8 460.6 585.6 459.7 587.2 459.7H597C598.9 459.7 600.2 460 600.9 460.7C601.7 461.3 602.3 462.7 602.9 464.6L619.7 530.8L635.3 464.6C635.8 462.6 636.4 461.3 637.2 460.7C638 460.1 639.4 459.7 641.2 459.7H649.2C651.1 459.7 652.4 460 653.2 460.7C654 461.3 654.7 462.7 655.1 464.6L670.9 531.6L688.2 464.6C688.8 462.6 689.5 461.3 690.2 460.7C691 460.1 692.3 459.7 694.1 459.7H703.4C705 459.7 705.9 460.5 705.9 462.2C705.9 462.7 705.8 463.2 705.7 463.8C705.6 464.4 705.4 465.2 705 466.3L680.9 543.6C680.3 545.6 679.6 546.9 678.8 547.5C678 548.1 676.7 548.5 675 548.5H666.4C664.5 548.5 663.2 548.2 662.4 547.5C661.6 546.8 660.9 545.5 660.5 543.5L645 479L629.6 543.4C629.1 545.4 628.5 546.7 627.7 547.4C626.9 548.1 625.5 548.4 623.7 548.4H615.1ZM743.6 551.1C738.4 551.1 733.2 550.5 728.2 549.3C723.2 548.1 719.3 546.8 716.7 545.3C715.1 544.4 714 543.4 713.6 542.5C713.2 541.6 713 540.6 713 539.7V534.6C713 532.5 713.8 531.5 715.3 531.5C715.9 531.5 716.5 531.6 717.1 531.8C717.7 532 718.6 532.4 719.6 532.8C723 534.3 726.7 535.5 730.6 536.3C734.6 537.1 738.5 537.5 742.5 537.5C748.8 537.5 753.7 536.4 757.1 534.2C760.5 532 762.3 528.8 762.3 524.7C762.3 521.9 761.4 519.6 759.6 517.7C757.8 515.8 754.4 514.1 749.5 512.5L735 508C727.7 505.7 722.3 502.3 719 497.8C715.7 493.4 714 488.5 714 483.3C714 479.1 714.9 475.4 716.7 472.2C718.5 469 720.9 466.2 723.9 464C726.9 461.7 730.3 460 734.3 458.8C738.3 457.6 742.5 457.1 746.9 457.1C749.1 457.1 751.4 457.2 753.6 457.5C755.9 457.8 758 458.2 760.1 458.6C762.1 459.1 764 459.6 765.8 460.2C767.6 460.8 769 461.4 770 462C771.4 462.8 772.4 463.6 773 464.5C773.6 465.3 773.9 466.4 773.9 467.8V472.5C773.9 474.6 773.1 475.7 771.6 475.7C770.8 475.7 769.5 475.3 767.8 474.5C762.1 471.9 755.7 470.6 748.6 470.6C742.9 470.6 738.4 471.5 735.3 473.4C732.2 475.3 730.6 478.2 730.6 482.3C730.6 485.1 731.6 487.5 733.6 489.4C735.6 491.3 739.3 493.2 744.6 494.9L758.8 499.4C766 501.7 771.2 504.9 774.3 509C777.4 513.1 778.9 517.8 778.9 523C778.9 527.3 778 531.2 776.3 534.6C774.5 538 772.1 541 769 543.4C765.9 545.9 762.2 547.7 757.9 549C753.4 550.4 748.7 551.1 743.6 551.1Z" fill="#9FFCEA"/>
<path d="M762.5 599.7C729.6 624 681.8 636.9 640.7 636.9C583.1 636.9 531.2 615.6 492 580.2C488.9 577.4 491.7 573.6 495.4 575.8C537.8 600.4 590.1 615.3 644.2 615.3C680.7 615.3 720.8 607.7 757.7 592.1C763.2 589.6 767.9 595.7 762.5 599.7Z" fill="#9FFCEA"/>
<path d="M776.2 584.1C772 578.7 748.4 581.5 737.7 582.8C734.5 583.2 734 580.4 736.9 578.3C755.7 565.1 786.6 568.9 790.2 573.3C793.8 577.8 789.2 608.7 771.6 623.5C768.9 625.8 766.3 624.6 767.5 621.6C771.5 611.7 780.4 589.4 776.2 584.1Z" fill="#9FFCEA"/>
</svg>
